HIERARCHY
ROOT Hips
{
	OFFSET 0.000000 121.760803 0.000000
	CHANNELS 6 Xposition Yposition Zposition Xrotation Yrotation Zrotation 
	JOINT Spine
	{
		OFFSET 0.072000 7.257294 -0.789700
		CHANNELS 3 Xrotation Yrotation Zrotation
		JOINT Spine1
		{
			OFFSET 0.000000 12.508769 -0.658067
			CHANNELS 3 Xrotation Yrotation Zrotation
			JOINT Spine1_split
			{
				OFFSET 0.000000 12.508769 -0.658067
				CHANNELS 3 Xrotation Yrotation Zrotation
				JOINT Spine2
				{
					OFFSET 0.000000 12.508769 -0.658067
					CHANNELS 3 Xrotation Yrotation Zrotation
					JOINT Neck
					{
						OFFSET 0.000000 14.033295 7.520400
						CHANNELS 3 Xrotation Yrotation Zrotation
						JOINT Head
						{
							OFFSET 0.000000 8.198502 5.703100
							CHANNELS 3 Xrotation Yrotation Zrotation
							JOINT HeadTop_End
							{
								OFFSET 0.000000 17.760803 13.332701
								CHANNELS 3 Xrotation Yrotation Zrotation
								End Site
								{
									OFFSET 0.000000 0.000000 0.000000
								}
							}
						}
					}
					JOINT LeftShoulder
					{
						OFFSET 6.292450 5.785301 -0.669000
						CHANNELS 3 Xrotation Yrotation Zrotation
						JOINT LeftShoulder_split
						{
							OFFSET 6.292450 5.785301 -0.669000
							CHANNELS 3 Xrotation Yrotation Zrotation
							JOINT LeftArm
							{
								OFFSET 13.907140 -6.093903 1.965100
								CHANNELS 3 Xrotation Yrotation Zrotation
								JOINT LeftForeArm
								{
									OFFSET 34.140198 0.000000 0.000000
									CHANNELS 3 Xrotation Yrotation Zrotation
									JOINT LeftHand
									{
										OFFSET 40.960209 0.000000 0.000000
										CHANNELS 3 Xrotation Yrotation Zrotation
										JOINT LeftHandThumb1
										{
											OFFSET 10.006996 -7.170425 9.573125
											CHANNELS 3 Xrotation Yrotation Zrotation
											JOINT LeftHandThumb2
											{
												OFFSET 1.835007 -1.059448 1.059443
												CHANNELS 3 Xrotation Yrotation Zrotation
												JOINT LeftHandThumb3
												{
													OFFSET 2.112267 -1.219513 1.219518
													CHANNELS 3 Xrotation Yrotation Zrotation
													JOINT LeftHandThumb4
													{
														OFFSET 4.843811 -2.796570 2.796576
														CHANNELS 3 Xrotation Yrotation Zrotation
														End Site
														{
															OFFSET 0.000000 0.000000 0.000000
														}
													}
												}
											}
										}
										JOINT LeftHandIndex1
										{
											OFFSET 18.389847 -0.922348 4.596882
											CHANNELS 3 Xrotation Yrotation Zrotation
											JOINT LeftHandIndex2
											{
												OFFSET 4.711273 0.000000 0.000000
												CHANNELS 3 Xrotation Yrotation Zrotation
												JOINT LeftHandIndex3
												{
													OFFSET 2.886131 0.000000 0.000000
													CHANNELS 3 Xrotation Yrotation Zrotation
													JOINT LeftHandIndex4
													{
														OFFSET 6.145912 0.000000 0.000000
														CHANNELS 3 Xrotation Yrotation Zrotation
														End Site
														{
															OFFSET 0.000000 0.000000 0.000000
														}
													}
												}
											}
										}
										JOINT LeftHandMiddle1
										{
											OFFSET 18.013008 0.000000 0.000000
											CHANNELS 3 Xrotation Yrotation Zrotation
											JOINT LeftHandMiddle2
											{
												OFFSET 4.946693 0.000000 0.000000
												CHANNELS 3 Xrotation Yrotation Zrotation
												JOINT LeftHandMiddle3
												{
													OFFSET 3.342232 0.000000 0.000000
													CHANNELS 3 Xrotation Yrotation Zrotation
													JOINT LeftHandMiddle4
													{
														OFFSET 4.461754 0.000000 0.000000
														CHANNELS 3 Xrotation Yrotation Zrotation
														End Site
														{
															OFFSET 0.000000 0.000000 0.000000
														}
													}
												}
											}
										}
										JOINT LeftHandRing1
										{
											OFFSET 15.849892 -0.102921 -4.126150
											CHANNELS 3 Xrotation Yrotation Zrotation
											JOINT LeftHandRing2
											{
												OFFSET 3.527054 0.000000 0.000000
												CHANNELS 3 Xrotation Yrotation Zrotation
												JOINT LeftHandRing3
												{
													OFFSET 2.961098 0.000000 0.000000
													CHANNELS 3 Xrotation Yrotation Zrotation
													JOINT LeftHandRing4
													{
														OFFSET 4.927200 0.000000 0.000000
														CHANNELS 3 Xrotation Yrotation Zrotation
														End Site
														{
															OFFSET 0.000000 0.000000 0.000000
														}
													}
												}
											}
										}
										JOINT LeftHandPinky1
										{
											OFFSET 12.791824 -0.832031 -6.799156
											CHANNELS 3 Xrotation Yrotation Zrotation
											JOINT LeftHandPinky2
											{
												OFFSET 3.327133 0.000000 0.000000
												CHANNELS 3 Xrotation Yrotation Zrotation
												JOINT LeftHandPinky3
												{
													OFFSET 3.014900 0.000000 0.000000
													CHANNELS 3 Xrotation Yrotation Zrotation
													JOINT LeftHandPinky4
													{
														OFFSET 5.847786 0.000000 0.000000
														CHANNELS 3 Xrotation Yrotation Zrotation
														End Site
														{
															OFFSET 0.000000 0.000000 0.000000
														}
													}
												}
											}
										}
									}
								}
							}
						}
					}
					JOINT RightShoulder
					{
						OFFSET -6.292450 5.785301 -0.669000
						CHANNELS 3 Xrotation Yrotation Zrotation
						JOINT RightShoulder_split
						{
							OFFSET -6.292450 5.785301 -0.669000
							CHANNELS 3 Xrotation Yrotation Zrotation
							JOINT RightArm
							{
								OFFSET -13.907140 -6.093903 1.965100
								CHANNELS 3 Xrotation Yrotation Zrotation
								JOINT RightForeArm
								{
									OFFSET -34.140198 0.000000 0.000000
									CHANNELS 3 Xrotation Yrotation Zrotation
									JOINT RightHand
									{
										OFFSET -40.960209 0.000000 0.000000
										CHANNELS 3 Xrotation Yrotation Zrotation
										JOINT RightHandThumb1
										{
											OFFSET -10.007050 -7.170456 9.573117
											CHANNELS 3 Xrotation Yrotation Zrotation
											JOINT RightHandThumb2
											{
												OFFSET -1.835007 -1.059448 1.059443
												CHANNELS 3 Xrotation Yrotation Zrotation
												JOINT RightHandThumb3
												{
													OFFSET -2.112267 -1.219513 1.219518
													CHANNELS 3 Xrotation Yrotation Zrotation
													JOINT RightHandThumb4
													{
														OFFSET -4.843834 -2.796585 2.796590
														CHANNELS 3 Xrotation Yrotation Zrotation
														End Site
														{
															OFFSET 0.000000 0.000000 0.000000
														}
													}
												}
											}
										}
										JOINT RightHandIndex1
										{
											OFFSET -18.389870 -0.922424 4.596786
											CHANNELS 3 Xrotation Yrotation Zrotation
											JOINT RightHandIndex2
											{
												OFFSET -4.711273 0.000000 0.000000
												CHANNELS 3 Xrotation Yrotation Zrotation
												JOINT RightHandIndex3
												{
													OFFSET -2.886131 0.000000 0.000000
													CHANNELS 3 Xrotation Yrotation Zrotation
													JOINT RightHandIndex4
													{
														OFFSET -6.145920 0.000000 0.000000
														CHANNELS 3 Xrotation Yrotation Zrotation
														End Site
														{
															OFFSET 0.000000 0.000000 0.000000
														}
													}
												}
											}
										}
										JOINT RightHandMiddle1
										{
											OFFSET -18.013008 0.000000 0.000000
											CHANNELS 3 Xrotation Yrotation Zrotation
											JOINT RightHandMiddle2
											{
												OFFSET -4.946693 0.000000 0.000000
												CHANNELS 3 Xrotation Yrotation Zrotation
												JOINT RightHandMiddle3
												{
													OFFSET -3.342232 0.000000 0.000000
													CHANNELS 3 Xrotation Yrotation Zrotation
													JOINT RightHandMiddle4
													{
														OFFSET -4.461754 0.000000 0.000000
														CHANNELS 3 Xrotation Yrotation Zrotation
														End Site
														{
															OFFSET 0.000000 0.000000 0.000000
														}
													}
												}
											}
										}
										JOINT RightHandRing1
										{
											OFFSET -15.849876 -0.102936 -4.126237
											CHANNELS 3 Xrotation Yrotation Zrotation
											JOINT RightHandRing2
											{
												OFFSET -3.527054 0.000000 0.000000
												CHANNELS 3 Xrotation Yrotation Zrotation
												JOINT RightHandRing3
												{
													OFFSET -2.961098 0.000000 0.000000
													CHANNELS 3 Xrotation Yrotation Zrotation
													JOINT RightHandRing4
													{
														OFFSET -4.927200 0.000000 0.000000
														CHANNELS 3 Xrotation Yrotation Zrotation
														End Site
														{
															OFFSET 0.000000 0.000000 0.000000
														}
													}
												}
											}
										}
										JOINT RightHandPinky1
										{
											OFFSET -12.791786 -0.832077 -6.799222
											CHANNELS 3 Xrotation Yrotation Zrotation
											JOINT RightHandPinky2
											{
												OFFSET -3.327133 0.000000 0.000000
												CHANNELS 3 Xrotation Yrotation Zrotation
												JOINT RightHandPinky3
												{
													OFFSET -3.014900 0.000000 0.000000
													CHANNELS 3 Xrotation Yrotation Zrotation
													JOINT RightHandPinky4
													{
														OFFSET -5.847786 0.000000 0.000000
														CHANNELS 3 Xrotation Yrotation Zrotation
														End Site
														{
															OFFSET 0.000000 0.000000 0.000000
														}
													}
												}
											}
										}
									}
								}
							}
						}
					}
				}
			}
		}
	}
	JOINT LeftUpLeg
	{
		OFFSET 13.026900 -6.336304 -1.092800
		CHANNELS 3 Xrotation Yrotation Zrotation
		JOINT LeftLeg
		{
			OFFSET 0.524474 -46.096886 9.782700
			CHANNELS 3 Xrotation Yrotation Zrotation
			JOINT LeftFoot
			{
				OFFSET -0.524474 -53.427422 -12.948200
				CHANNELS 3 Xrotation Yrotation Zrotation
				JOINT LeftToeBase
				{
					OFFSET 0.192200 -14.009700 16.364100
					CHANNELS 3 Xrotation Yrotation Zrotation
					JOINT LeftToe_End
					{
						OFFSET -1.784700 -0.561700 9.474800
						CHANNELS 3 Xrotation Yrotation Zrotation
						End Site
						{
							OFFSET 0.000000 0.000000 0.000000
						}
					}
				}
			}
		}
	}
	JOINT RightUpLeg
	{
		OFFSET -12.883000 -6.336304 -1.092800
		CHANNELS 3 Xrotation Yrotation Zrotation
		JOINT RightLeg
		{
			OFFSET -0.524587 -46.096825 9.782800
			CHANNELS 3 Xrotation Yrotation Zrotation
			JOINT RightFoot
			{
				OFFSET 0.524587 -53.427383 -12.948300
				CHANNELS 3 Xrotation Yrotation Zrotation
				JOINT RightToeBase
				{
					OFFSET -0.192200 -14.009700 16.364100
					CHANNELS 3 Xrotation Yrotation Zrotation
					JOINT RightToe_End
					{
						OFFSET 1.784700 -0.561700 9.474800
						CHANNELS 3 Xrotation Yrotation Zrotation
						End Site
						{
							OFFSET 0.000000 0.000000 0.000000
						}
					}
				}
			}
		}
	}
}
MOTION
Frames: 5
Frame Time: 0.016667
-4.687402 112.563873 -8.281832 -2.953103 -1.546843 2.150623 8.854897 2.988676 -5.143402 1.276166 0.577129 -0.622580 0.000000 0.000000 0.000000 1.278387 0.567047 -0.629522 -6.061335 0.449845 0.950596 5.338945 4.042163 -5.183570 -0.000001 -0.000000 0.000001 -0.302509 5.872714 -1.999016 0.000000 0.000000 0.000000 -14.720688 -10.177259 -69.280999 -0.000007 -33.970233 -0.000007 11.041609 5.640854 -12.077301 -1.528257 3.687857 6.128910 3.939049 7.948704 0.746793 -0.579468 1.575008 2.538715 0.000002 0.000001 0.000000 0.033126 0.675970 -5.610577 0.032967 0.674437 -5.597730 0.032971 0.674430 -5.597734 -0.000001 -0.000001 0.000001 0.069853 0.980276 -8.151093 0.078695 1.040176 -8.653185 0.076507 1.025684 -8.531523 0.000002 0.000002 -0.000001 0.141436 1.391202 -11.609556 0.158273 1.470736 -12.283645 0.154444 1.453024 -12.133361 -0.000001 -0.000002 -0.000001 1.260517 5.698235 -14.444247 0.229451 -2.281936 -15.368575 0.231657 1.774435 -14.874743 -0.000001 0.000000 -0.000002 4.545748 12.839000 -7.835328 0.000000 0.000000 0.000000 -1.611811 -3.214996 72.442523 0.000007 36.829708 -0.000017 4.215970 0.157733 15.844632 -1.849253 -3.581787 -6.586136 4.637191 -8.634133 -0.225391 -1.273765 0.137317 -2.094860 0.000003 0.000000 0.000003 0.097307 -1.161582 9.577303 0.097305 -1.161570 9.577317 0.097311 -1.161575 9.577301 -0.000001 -0.000001 -0.000001 0.734452 -4.504872 10.622728 0.142208 -1.401926 11.584702 -0.321085 -1.479197 11.440318 0.000002 0.000001 0.000001 1.799552 -8.681486 12.425402 0.204349 -1.676593 13.897343 -0.341217 -1.789777 13.721051 0.000001 -0.000001 -0.000001 3.081997 -12.378818 14.479198 0.252504 -1.860356 15.457615 0.252509 -1.860356 15.457620 -0.000003 0.000001 0.000003 -18.645976 6.454387 2.752977 28.447349 7.320700 -1.002754 -6.328928 0.660097 -2.239567 -0.002837 -0.000001 0.000001 -0.000000 -0.000000 -0.000000 -7.570086 -16.635964 -13.569374 26.963114 -0.559986 -5.600419 -15.708921 -1.019364 15.630372 -6.790992 -0.000005 -0.000001 0.000000 -0.000000 -0.000000 
-4.736454 112.553596 -8.429762 -2.856979 -1.618772 2.138148 8.977316 2.882213 -5.261421 1.296462 0.561210 -0.636463 0.000000 0.000000 0.000000 1.298516 0.551112 -0.643279 -6.130196 0.380287 1.181956 5.083279 4.090372 -5.065638 0.000000 0.000001 0.000000 -0.303984 5.822776 -1.781758 0.000000 0.000000 0.000000 -14.889688 -10.799706 -69.024430 -0.000012 -34.489880 -0.000029 10.925302 5.810043 -12.083961 -1.528118 3.687833 6.128775 3.939049 7.948705 0.746794 -0.579469 1.575005 2.538715 0.000002 0.000001 0.000001 0.033124 0.675965 -5.610577 0.032968 0.674437 -5.597730 0.032971 0.674431 -5.597736 0.000000 -0.000001 0.000000 0.069856 0.980276 -8.151093 0.078698 1.040174 -8.653187 0.076507 1.025684 -8.531524 0.000001 0.000001 -0.000002 0.141435 1.391201 -11.609554 0.158267 1.470736 -12.283644 0.154444 1.453026 -12.133363 -0.000001 0.000001 0.000001 1.260519 5.698231 -14.444247 0.229456 -2.281934 -15.368569 0.231656 1.774433 -14.874743 -0.000005 0.000000 -0.000003 4.504492 12.696256 -7.406779 0.000000 0.000000 0.000000 -1.846144 -3.449439 72.003786 0.000008 37.086561 -0.000001 4.778070 -0.150854 16.413863 -1.849251 -3.581784 -6.586138 4.637192 -8.634131 -0.225393 -1.273762 0.137315 -2.094864 0.000003 0.000001 0.000000 0.097308 -1.161580 9.577301 0.097318 -1.161567 9.577312 0.097314 -1.161577 9.577302 -0.000000 0.000000 -0.000001 0.734449 -4.504871 10.622729 0.142206 -1.401925 11.584703 -0.321089 -1.479195 11.440321 0.000002 0.000000 -0.000002 1.799551 -8.681485 12.425399 0.204347 -1.676595 13.897342 -0.341213 -1.789779 13.721048 0.000002 0.000000 0.000001 3.082001 -12.378819 14.479198 0.252507 -1.860355 15.457613 0.252504 -1.860354 15.457623 0.000000 -0.000000 0.000001 -18.826341 6.469613 2.848756 28.461268 7.581183 -1.038666 -6.235571 0.680006 -2.284679 -0.002875 0.000007 0.000000 -0.000000 -0.000000 0.000000 -7.765235 -16.537561 -13.485131 27.012976 -0.445480 -5.567073 -15.774221 -1.137693 15.483918 -6.654313 -0.000005 -0.000005 0.000000 0.000000 -0.000000 
-4.789367 112.545471 -8.589250 -2.748463 -1.685139 2.121413 9.107471 2.753080 -5.356585 1.319395 0.540907 -0.647528 0.000000 0.000000 0.000000 1.321269 0.530790 -0.654146 -6.190336 0.319003 1.390178 4.811083 4.139858 -4.959372 -0.000001 0.000001 -0.000001 -0.303278 5.756984 -1.555984 0.000000 0.000000 0.000000 -15.042484 -11.360660 -68.812626 0.000005 -34.989205 -0.000016 10.923334 5.925817 -12.107332 -1.527924 3.687836 6.128553 3.939048 7.948703 0.746793 -0.579467 1.575007 2.538712 -0.000001 0.000002 0.000000 0.033126 0.675970 -5.610577 0.032967 0.674440 -5.597732 0.032972 0.674430 -5.597735 -0.000001 0.000001 0.000001 0.069855 0.980279 -8.151094 0.078697 1.040175 -8.653184 0.076507 1.025683 -8.531524 0.000002 0.000002 0.000001 0.141435 1.391206 -11.609559 0.158266 1.470738 -12.283646 0.154443 1.453026 -12.133366 0.000002 -0.000002 -0.000000 1.260519 5.698236 -14.444248 0.229454 -2.281937 -15.368573 0.231651 1.774432 -14.874748 -0.000000 0.000001 0.000002 4.474246 12.585514 -7.073517 0.000000 0.000000 0.000000 -2.036079 -3.701656 71.662229 -0.000002 37.330194 0.000008 5.206091 -0.406971 16.986153 -1.849255 -3.581789 -6.586133 4.637192 -8.634129 -0.225393 -1.273765 0.137315 -2.094865 -0.000000 -0.000003 -0.000000 0.097310 -1.161582 9.577307 0.097311 -1.161573 9.577315 0.097313 -1.161579 9.577301 -0.000001 -0.000001 -0.000001 0.734454 -4.504873 10.622729 0.142208 -1.401923 11.584705 -0.321088 -1.479196 11.440320 -0.000003 -0.000000 -0.000001 1.799551 -8.681485 12.425402 0.204353 -1.676593 13.897342 -0.341214 -1.789778 13.721053 0.000002 -0.000002 -0.000002 3.081999 -12.378821 14.479198 0.252505 -1.860356 15.457613 0.252502 -1.860356 15.457627 -0.000002 0.000002 0.000001 -19.025598 6.465480 2.942331 28.469451 7.873183 -1.060187 -6.128321 0.694472 -2.344237 -0.002943 -0.000002 0.000000 -0.000000 0.000000 -0.000000 -7.981220 -16.438121 -13.407328 27.069686 -0.354475 -5.524928 -15.821332 -1.235303 15.357802 -6.535774 -0.000007 0.000006 0.000001 -0.000003 -0.000000 
-4.855909 112.545090 -8.779899 -2.596696 -1.720309 2.095789 9.251084 2.554879 -5.393066 1.348061 0.507319 -0.651501 0.000000 0.000000 0.000000 1.349749 0.497194 -0.657720 -6.227111 0.278792 1.541826 4.498673 4.198867 -4.883209 -0.000000 0.000000 -0.000000 -0.297159 5.645770 -1.293703 0.000000 0.000000 0.000000 -15.168832 -11.755815 -68.723813 0.000026 -35.439744 0.000041 11.246020 5.895247 -12.186533 -1.527490 3.687786 6.128149 3.939049 7.948708 0.746791 -0.579467 1.575009 2.538713 -0.000001 0.000001 0.000000 0.033122 0.675969 -5.610577 0.032965 0.674439 -5.597732 0.032974 0.674426 -5.597734 -0.000001 -0.000001 0.000001 0.069855 0.980277 -8.151093 0.078698 1.040172 -8.653185 0.076505 1.025685 -8.531525 -0.000000 0.000001 -0.000001 0.141434 1.391203 -11.609556 0.158268 1.470737 -12.283644 0.154443 1.453025 -12.133361 0.000004 0.000000 0.000001 1.260515 5.698233 -14.444248 0.229454 -2.281938 -15.368569 0.231652 1.774435 -14.874745 -0.000002 0.000002 0.000001 4.469008 12.563351 -6.980662 0.000000 0.000000 0.000000 -2.107496 -4.025326 71.586741 0.000000 37.565313 -0.000000 5.445485 -0.606406 17.768278 -1.849250 -3.581787 -6.586136 4.637193 -8.634128 -0.225394 -1.273761 0.137316 -2.094864 -0.000001 -0.000001 0.000002 0.097310 -1.161581 9.577305 0.097319 -1.161570 9.577316 0.097310 -1.161581 9.577302 0.000001 0.000001 0.000000 0.734453 -4.504872 10.622728 0.142212 -1.401924 11.584703 -0.321084 -1.479195 11.440322 0.000000 0.000002 0.000002 1.799552 -8.681483 12.425402 0.204354 -1.676594 13.897341 -0.341210 -1.789779 13.721047 0.000001 -0.000001 -0.000000 3.081997 -12.378820 14.479198 0.252506 -1.860356 15.457616 0.252507 -1.860357 15.457623 -0.000003 -0.000001 -0.000002 -19.284204 6.396676 3.020057 28.455058 8.281484 -1.031131 -5.978281 0.663589 -2.455616 -0.003074 -0.000000 0.000000 -0.000000 -0.000000 -0.000000 -8.261448 -16.341378 -13.353888 27.145757 -0.333371 -5.448666 -15.817122 -1.280199 15.283742 -6.474732 0.000003 0.000001 0.000001 0.000000 -0.000000 
-4.922368 112.543884 -8.989239 -2.444689 -1.778808 2.056938 9.421828 2.336078 -5.386689 1.383672 0.469616 -0.649913 0.000000 0.000000 0.000000 1.385200 0.459451 -0.655662 -6.249579 0.254371 1.644643 4.154949 4.254122 -4.827951 0.000001 -0.000000 0.000000 -0.286552 5.514381 -1.044846 0.000000 0.000000 0.000000 -15.270254 -12.043486 -68.677634 -0.000010 -35.845383 -0.000015 11.719229 5.781204 -12.275093 -1.526933 3.687725 6.127590 3.939051 7.948706 0.746792 -0.579468 1.575007 2.538717 -0.000003 0.000001 -0.000003 0.033122 0.675965 -5.610574 0.032970 0.674438 -5.597730 0.032972 0.674428 -5.597734 0.000001 -0.000000 0.000002 0.069853 0.980272 -8.151091 0.078698 1.040172 -8.653185 0.076504 1.025681 -8.531524 -0.000001 0.000001 -0.000001 0.141437 1.391197 -11.609553 0.158272 1.470734 -12.283643 0.154444 1.453025 -12.133362 0.000003 -0.000002 -0.000000 1.260518 5.698229 -14.444247 0.229457 -2.281937 -15.368575 0.231656 1.774435 -14.874743 0.000001 0.000002 0.000000 4.475547 12.587491 -7.070220 0.000000 0.000000 0.000000 -2.082178 -4.351411 71.670309 0.000008 37.724672 0.000001 5.090791 -0.623871 18.111601 -1.849253 -3.581787 -6.586136 4.637187 -8.634133 -0.225393 -1.273756 0.137317 -2.094860 0.000001 -0.000001 -0.000001 0.097309 -1.161583 9.577305 0.097311 -1.161567 9.577316 0.097311 -1.161577 9.577302 -0.000003 -0.000000 -0.000001 0.734454 -4.504873 10.622730 0.142212 -1.401925 11.584703 -0.321093 -1.479196 11.440316 -0.000005 0.000002 0.000001 1.799555 -8.681485 12.425402 0.204353 -1.676593 13.897343 -0.341215 -1.789778 13.721051 0.000007 0.000000 0.000001 3.082000 -12.378820 14.479198 0.252504 -1.860354 15.457618 0.252501 -1.860355 15.457627 -0.000000 -0.000000 0.000001 -19.556199 6.321440 3.114528 28.444345 8.677148 -1.002760 -5.817105 0.685733 -2.565908 -0.003259 -0.000004 -0.000000 0.000000 -0.000000 0.000000 -8.558726 -16.232098 -13.295312 27.230948 -0.339475 -5.379703 -15.793161 -1.285404 15.243971 -6.425571 0.000002 0.000001 -0.000000 0.000002 0.000000 
